<svg xmlns="http://www.w3.org/2000/svg" viewBox="0 0 128 128"><path fill="#21759B" d="M64 0C28.7 0 0 28.7 0 64s28.7 64 64 64 64-28.7 64-64S99.3 0 64 0zm0 125.9c-34.2 0-61.9-27.7-61.9-61.9S29.8 2.1 64 2.1s61.9 27.7 61.9 61.9-27.7 61.9-61.9 61.9z"/><path fill="#21759B" d="M16.7 64c0 19.8 11.5 36.9 28.2 45.1L20 42.9c-2.1 6.7-3.3 13.8-3.3 21.1zm86.9-2.8c0-6.2-2.2-10.5-4.1-13.8-2.5-4.1-4.9-7.6-4.9-11.7 0-4.6 3.5-8.8 8.4-8.8.2 0 .4 0 .7.1-8.9-8.1-20.7-13.1-33.6-13.1-17.4 0-32.6 8.9-41.6 22.4 1.2 0 2.3.1 3.2.1 5.1 0 13.1-.6 13.1-.6 2.6-.2 2.9 3.7.3 4 0 0-2.6.3-5.5.5l17.6 52.2 10.6-31.7-7.5-20.5c-2.6-.2-5.1-.5-5.1-.5-2.6-.2-2.3-4.2.3-4 0 0 8.1.6 13 .6 5.1 0 13.1-.6 13.1-.6 2.6-.2 2.9 3.7.3 4 0 0-2.6.3-5.5.5l17.4 51.8 4.8-16c2.1-6.7 3.7-11.5 3.7-15.7zm-34.1 6.6l-14.5 42c4.3 1.3 8.9 2 13.6 2 5.6 0 11-1 16-2.7-.1-.2-.3-.4-.4-.7l-14.7-40.6zM107.4 41c.2 1.7.4 3.5.4 5.4 0 5.3-1 11.3-4 18.8l-16.1 46.4c15.6-9.1 26.1-26 26.1-45.6 0-9.1-2.3-17.7-6.4-25z" style="fill:#00A0D2"/></svg>
